:SAMPLES-PER-SECOND 30
:FULLY-SPECIFIED
:DEGREES
16
root  85.2815 40.1428 -1.73503 -172.898 -85.3649 170.068
RightUpLeg  1.7485 -9.81085 -6.77892
RightLeg  7.04487 -0.581761 4.50456
RightFoot  -5.06594 -0.0463765 0.220264
RightToes  0.00048216 0.542163 -0.142577
Spine  6.10889 0.75553 1.28904
Spine1  4.52609 1.02214 -0.475074
HEad  -2.06677 2.7313 -1.55427
LeftShoulder1  1.2251 -1.75258 -16.4707
LeftArm  -22.5628 11.7948 -6.88751
LeftForeArm  6.37858 -2.20059 0.41666
LeftHand  -0.25398 0.0180481 5.50724
RightShoulder  0.546071 0.370194 6.43125
RightArm  -26.8863 -7.00029 7.67657
RightForeArm  -3.6573 8.43319 2.41056
RightHand  -1.46828 3.87949 -18.5668
LeftUpLeg  2.22053 6.78001 2.03903
LeftLeg  8.60034 16.1732 -0.516054
LeftFoot  -10.1302 0.0743376 -1.28483
LeftToes  1.0625e-005 4.65855e-005 -8.18498e-006
17
root  85.1849 40.101 -1.60163 -175.467 -84.7336 172.232
RightUpLeg  1.92599 -10.0969 -6.98991
RightLeg  7.77579 0.456635 4.36032
RightFoot  -5.74656 -0.0888996 1.02458
RightToes  0.00048216 0.542163 -0.142577
Spine  6.41063 0.731181 1.13051
Spine1  5.03316 0.817972 0.217961
HEad  -1.43829 3.09589 -2.09953
LeftShoulder1  1.34056 -1.62946 -19.4307
LeftArm  -22.8123 11.6761 -6.6609
LeftForeArm  5.49849 -2.80149 0.38876
LeftHand  -0.25398 0.0180481 5.50724
RightShoulder  0.657658 0.99121 7.02621
RightArm  -27.4839 -8.08434 9.55745
RightForeArm  -2.86877 12.7459 3.15794
RightHand  -1.55513 4.28479 -18.844
LeftUpLeg  2.63158 7.08808 1.89683
LeftLeg  9.33554 16.3778 -0.139462
LeftFoot  -11.6039 0.0662034 -1.40354
LeftToes  1.0625e-005 4.65855e-005 -8.18498e-006
18
root  85.0724 40.0396 -1.45507 -176.092 -84.5561 172.338
RightUpLeg  2.03694 -10.7842 -7.30437
RightLeg  9.03089 1.55419 4.00386
RightFoot  -6.5206 -0.122255 1.8491
RightToes  0.00048216 0.542163 -0.142577
Spine  6.46148 0.84597 1.50463
Spine1  5.88241 1.10963 -0.488669
HEad  -0.850895 2.28825 -1.49559
LeftShoulder1  1.66309 -2.64401 -20.5424
LeftArm  -22.7736 11.2604 -7.83792
LeftForeArm  5.67402 -2.52971 0.306001
LeftHand  -0.25398 0.0180481 5.50724
RightShoulder  0.815588 1.20065 10.0845
RightArm  -27.3001 -9.76712 10.2309
RightForeArm  -1.76764 17.9213 4.07575
RightHand  -1.59443 4.34582 -19.1889
LeftUpLeg  3.09197 7.27922 1.65446
LeftLeg  10.1138 16.1402 0.226471
LeftFoot  -12.888 0.053727 -1.73943
LeftToes  1.0625e-005 4.65855e-005 -8.18498e-006
19
root  84.9552 39.9602 -1.29569 -175.271 -84.6638 170.907
RightUpLeg  1.8147 -12.0827 -7.62327
RightLeg  11.1832 2.98056 3.28997
RightFoot  -7.29901 -0.133769 2.37796
RightToes  0.00048216 0.542163 -0.142577
Spine  6.6136 0.941434 1.93865
Spine1  6.7256 1.49359 -1.6323
HEad  -0.376225 1.3757 -0.475138
LeftShoulder1  2.03202 -3.90502 -20.9521
LeftArm  -22.5759 10.3816 -9.97641
LeftForeArm  5.97369 -1.53053 0.178153
LeftHand  -0.25398 0.0180481 5.50724
RightShoulder  1.04207 1.4667 14.0601
RightArm  -26.5413 -11.8291 10.6173
RightForeArm  -0.509729 23.0845 4.97331
RightHand  -1.61176 4.25084 -19.5706
LeftUpLeg  3.62118 7.51979 1.39978
LeftLeg  10.8642 15.6634 0.461489
LeftFoot  -13.7813 0.0360085 -2.19243
LeftToes  1.0625e-005 4.65855e-005 -8.18498e-006
20
root  84.8474 39.8528 -1.128 -174.3 -84.7458 169.297
RightUpLeg  0.96692 -13.3942 -7.73565
RightLeg  14.4174 4.37034 2.23831
RightFoot  -8.12576 -0.133375 2.80821
RightToes  0.00048216 0.542163 -0.142577
Spine  7.48502 0.704518 1.34455
Spine1  7.01384 1.03194 -0.965985
HEad  -0.0627643 1.70027 -0.634953
LeftShoulder1  2.23349 -4.01914 -23.3358
LeftArm  -22.0757 9.16987 -11.7152
LeftForeArm  5.79422 -0.771043 -0.130648
LeftHand  -0.25398 0.0180481 5.50724
RightShoulder  1.33655 2.34816 16.1307
RightArm  -25.6668 -13.5357 12.454
RightForeArm  2.2024 27.3389 5.77501
RightHand  -1.61728 4.19732 -19.7393
LeftUpLeg  4.14871 8.03335 1.27389
LeftLeg  11.6297 15.0678 0.529491
LeftFoot  -14.3553 0.017827 -2.59553
LeftToes  1.0625e-005 4.65855e-005 -8.18498e-006
21
root  84.7574 39.7145 -0.957725 -173.653 -84.6499 168.009
RightUpLeg  -0.766848 -12.6901 -7.70177
RightLeg  18.9072 4.00925 1.26369
RightFoot  -8.51856 -0.156514 4.0178
RightToes  0.00048216 0.542163 -0.142577
Spine  8.37386 0.779065 1.00282
Spine1  7.54852 1.04294 -0.96286
HEad  0.0352395 1.43017 -0.537393
LeftShoulder1  2.56441 -4.80105 -24.5982
LeftArm  -21.8618 7.78572 -14.6811
LeftForeArm  7.00673 -0.172268 -0.364618
LeftHand  -0.25398 0.0180481 5.50724
RightShoulder  1.64519 2.87924 19.3134
RightArm  -24.3093 -14.8335 13.6196
RightForeArm  5.99511 30.3173 6.28714
RightHand  -1.59024 4.1611 -19.4901
LeftUpLeg  4.56747 8.79895 1.22872
LeftLeg  12.5723 14.4202 0.530911
LeftFoot  -14.8256 0.0034047 -2.81108
LeftToes  1.0625e-005 4.65855e-005 -8.18498e-006
22
root  84.6716 39.5594 -0.789206 -172.501 -84.2968 166.212
RightUpLeg  -3.60946 -9.70854 -7.93222
RightLeg  25.0829 1.66712 0.621429
RightFoot  -7.42907 -0.273936 6.39116
RightToes  0.00048216 0.542163 -0.142577
Spine  9.40832 0.886128 0.24205
Spine1  8.15987 0.931797 -0.60868
HEad  -0.143905 1.68172 -0.693199
LeftShoulder1  3.04652 -5.80139 -26.5359
LeftArm  -21.4971 6.46257 -17.2706
LeftForeArm  9.26129 -0.169364 -0.669544
LeftHand  -0.25398 0.0180481 5.50724
RightShoulder  1.96965 3.46101 21.9951
RightArm  -23.0493 -15.2889 15.3896
RightForeArm  10.6639 31.3839 6.29158
RightHand  -1.54701 4.25684 -18.8014
LeftUpLeg  4.88229 9.57704 1.04949
LeftLeg  13.7732 14.0223 0.607299
LeftFoot  -15.3691 -0.00450595 -2.75225
LeftToes  1.0625e-005 4.65855e-005 -8.18498e-006
